<?xml version="1.0" standalone="no"?>
<!DOCTYPE svg PUBLIC "-//W3C//DTD SVG 20010904//EN"
 "http://www.w3.org/TR/2001/REC-SVG-20010904/DTD/svg10.dtd">
<svg version="1.0" xmlns="http://www.w3.org/2000/svg"
 width="661.000000pt" height="661.000000pt" viewBox="0 0 661.000000 661.000000"
 preserveAspectRatio="xMidYMid meet">
<metadata>
Created by potrace 1.11, written by Peter Selinger 2001-2013
</metadata>
<g transform="translate(0.000000,661.000000) scale(0.100000,-0.100000)"
fill="#000000" stroke="none">
<path d="M2600 6055 c-108 -22 -266 -80 -389 -144 -136 -69 -166 -86 -169 -93
-2 -5 -8 -8 -12 -8 -14 0 -340 -209 -395 -253 -34 -27 -151 -107 -157 -107 -3
0 -13 -6 -20 -13 -7 -7 -38 -30 -68 -52 -30 -22 -56 -43 -58 -47 -2 -5 -10 -8
-17 -8 -7 0 -15 -4 -17 -9 -1 -5 -41 -40 -88 -78 -167 -136 -203 -182 -224
-288 -36 -183 -66 -237 -161 -294 -52 -31 -66 -35 -165 -42 -95 -7 -115 -12
-152 -36 -24 -15 -52 -37 -63 -49 -11 -11 -47 -40 -79 -64 -153 -111 -178
-148 -161 -237 8 -47 19 -61 158 -214 23 -25 64 -70 91 -100 27 -30 69 -77 95
-105 25 -27 65 -71 89 -97 59 -65 103 -87 177 -87 63 0 80 8 132 58 16 15 52
47 81 72 130 110 128 107 136 221 9 138 37 204 110 251 83 56 106 63 201 63
57 -1 82 -6 133 -30 34 -17 62 -33 62 -37 0 -5 7 -8 15 -8 7 0 18 -6 22 -13 4
-7 21 -21 37 -31 30 -19 169 -155 222 -216 81 -96 137 -94 251 9 26 23 74 66
107 95 32 28 73 65 91 81 17 17 56 52 86 78 30 27 73 66 95 88 23 21 46 39 50
39 20 0 54 68 54 106 0 37 -29 93 -67 133 -44 44 -206 267 -233 319 -26 51
-31 74 -31 127 0 56 5 77 38 141 21 42 44 81 53 88 8 6 28 28 43 49 15 20 32
37 37 37 5 0 25 15 44 33 30 29 179 134 231 163 11 6 45 24 75 41 99 54 134
72 215 109 77 35 100 45 190 84 22 10 60 26 85 37 25 11 68 28 95 39 81 30
188 84 202 102 18 24 16 56 -6 83 l-19 24 -494 2 c-378 1 -508 -1 -558 -12z"/>
<path d="M5260 5979 c-154 -72 -345 -170 -405 -207 -38 -23 -79 -48 -90 -55
-11 -7 -22 -15 -25 -18 -3 -3 -27 -22 -55 -43 -145 -109 -243 -230 -287 -355
-32 -91 -39 -148 -48 -416 -7 -203 -13 -278 -29 -340 -44 -178 -68 -212 -373
-529 -254 -265 -252 -262 -228 -306 5 -10 24 -33 42 -52 18 -19 49 -53 68 -77
19 -23 46 -54 60 -70 14 -15 36 -41 50 -57 190 -223 210 -244 239 -244 28 0
48 17 211 172 100 95 281 266 340 322 135 127 367 205 520 176 302 -58 492
-49 661 28 70 32 203 128 227 164 8 13 20 28 26 33 48 44 139 203 171 300 58
178 88 543 66 817 -16 195 -39 251 -108 264 -84 16 -114 -12 -244 -216 -29
-47 -57 -86 -61 -88 -5 -2 -8 -7 -8 -12 0 -10 -99 -169 -117 -188 -7 -7 -13
-18 -13 -24 0 -12 -52 -80 -90 -119 -69 -70 -148 -97 -234 -79 -88 18 -200 84
-286 169 -135 135 -144 200 -50 376 24 44 56 105 73 135 16 30 32 60 37 65 7
10 48 81 80 140 9 17 28 49 43 72 15 24 27 47 27 52 0 5 7 15 16 22 13 10 15
27 12 76 -3 55 -8 68 -35 95 -42 42 -116 48 -183 17z"/>
<path d="M2845 4183 c-19 -5 -76 -46 -120 -88 -12 -11 -40 -37 -62 -57 -22
-21 -43 -38 -46 -38 -3 0 -20 -15 -39 -32 -18 -18 -57 -53 -86 -78 -29 -25
-80 -70 -114 -101 -59 -54 -61 -58 -66 -113 -5 -58 5 -91 38 -127 58 -62 142
-159 162 -184 12 -16 35 -41 50 -53 16 -13 28 -27 28 -32 0 -5 15 -24 33 -42
27 -29 80 -89 160 -182 10 -12 35 -39 55 -62 20 -22 57 -64 82 -93 25 -30 52
-61 61 -70 9 -9 53 -59 98 -111 45 -52 99 -113 119 -136 20 -22 53 -58 72 -81
19 -22 62 -70 95 -107 33 -37 65 -76 72 -85 7 -10 27 -34 45 -52 18 -19 53
-57 76 -84 24 -28 58 -66 75 -85 18 -19 50 -57 72 -84 22 -27 52 -60 66 -75
25 -25 67 -72 159 -180 25 -29 56 -65 70 -80 33 -37 104 -117 143 -162 18 -20
48 -54 67 -76 19 -21 58 -65 85 -97 28 -32 63 -72 78 -89 15 -17 51 -57 80
-90 29 -33 72 -82 97 -110 25 -27 48 -54 52 -61 3 -6 28 -33 53 -61 26 -27 66
-72 89 -99 22 -27 51 -59 64 -72 12 -13 22 -26 22 -29 0 -3 19 -24 43 -46 101
-96 220 -105 319 -23 24 20 58 48 76 62 18 15 47 40 65 55 18 16 48 41 67 55
124 95 165 162 157 259 -5 65 -23 102 -82 168 -15 17 -44 50 -64 75 -20 25
-43 52 -52 60 -9 8 -40 44 -70 80 -30 36 -72 85 -94 108 -22 24 -44 51 -49 60
-5 9 -23 30 -40 48 -17 17 -47 50 -66 73 -19 23 -48 57 -63 74 -16 18 -38 45
-50 60 -12 15 -35 43 -52 60 -16 18 -50 57 -75 86 -25 29 -55 64 -67 77 -12
13 -54 63 -95 111 -40 48 -80 94 -88 103 -8 9 -35 40 -60 69 -25 29 -54 63
-65 75 -11 12 -35 41 -53 63 -18 23 -45 54 -60 70 -15 16 -43 48 -62 71 -19
24 -46 55 -60 71 -52 58 -136 155 -150 175 -8 12 -22 28 -31 36 -9 8 -42 47
-75 85 -32 39 -65 74 -71 78 -7 4 -13 12 -13 17 0 5 -10 20 -22 32 -13 13 -43
48 -68 76 -25 29 -56 66 -70 81 -24 27 -83 96 -130 151 -11 14 -43 50 -71 82
-28 31 -58 66 -66 78 -8 11 -24 31 -36 43 -12 12 -38 42 -57 65 -19 24 -48 58
-65 76 -16 18 -41 47 -55 65 -14 17 -38 46 -55 64 -16 18 -55 62 -87 97 -123
142 -142 153 -223 133z"/>
<path d="M2604 2695 c-12 -8 -59 -51 -106 -97 -90 -87 -314 -305 -559 -542
-180 -174 -424 -409 -630 -610 -86 -83 -182 -176 -214 -206 -94 -90 -110 -120
-110 -209 0 -89 14 -118 90 -191 28 -26 100 -97 162 -156 132 -128 158 -144
232 -144 104 0 57 -40 756 647 160 157 421 414 580 572 160 157 306 299 324
315 28 25 32 34 28 63 -3 18 -12 39 -19 48 -29 34 -91 102 -118 132 -17 17
-30 33 -30 36 0 3 -15 20 -32 39 -45 47 -93 102 -232 261 -53 61 -82 71 -122
42z"/>
</g>
</svg>
